<svg width="23" height="16" viewBox="0 0 23 16" fill="none" xmlns="http://www.w3.org/2000/svg">
<path d="M0.0700912 3.99254C0.0700912 3.3707 0.493211 3.0354 1.33945 2.98662L4.60039 3.00491C4.81925 3.00491 4.96515 3.09636 5.03811 3.27925C5.37368 4.19372 5.74938 4.98322 6.16521 5.64773C6.58103 6.31225 7.12453 7.07735 7.79568 7.94305C7.85404 8.05279 7.94888 8.10766 8.08019 8.10766C8.18233 8.10766 8.26257 8.06498 8.32093 7.97963L8.38659 7.77845L8.40848 4.61438C8.40848 4.39491 8.34647 4.24859 8.22245 4.17543C8.09843 4.10228 7.86863 4.04741 7.53305 4.01083C7.27043 3.97425 7.13912 3.84013 7.13912 3.60846C7.13912 3.55969 7.14641 3.52311 7.161 3.49873C7.4674 2.70619 8.34282 2.30992 9.78726 2.30992L11.0129 2.29163C11.5673 2.29163 12.0269 2.40746 12.3916 2.63912C12.7564 2.87079 12.9388 3.23658 12.9388 3.73649V7.88818C13.0409 7.94915 13.1357 7.97963 13.2233 7.97963C13.4421 7.97963 13.6318 7.86989 13.7923 7.65042C15.3973 5.77271 16.2654 4.51684 16.3967 3.8828C16.3967 3.87061 16.4113 3.84013 16.4405 3.79136C16.5426 3.60846 16.7104 3.44995 16.9438 3.31583C17.1773 3.18171 17.3815 3.09026 17.5566 3.04149C17.615 3.01711 17.6806 3.00491 17.7536 3.00491H21.1459L21.3647 3.0232C21.6565 3.0232 21.8827 3.13903 22.0432 3.3707C22.1015 3.44386 22.1416 3.52311 22.1635 3.60846C22.1854 3.69381 22.2 3.77916 22.2073 3.86451C22.2146 3.94987 22.2182 3.99864 22.2182 4.01083V4.13886C22.1161 4.63877 21.8571 5.17221 21.4413 5.73918C21.0255 6.30615 20.4966 6.91884 19.8546 7.57726C19.2126 8.23568 18.8114 8.66853 18.6509 8.87581C18.5196 9.02213 18.4539 9.15625 18.4539 9.27818C18.4539 9.37572 18.5123 9.48546 18.629 9.60739L21.8243 12.9726C21.9994 13.1677 22.0869 13.3811 22.0869 13.6128C22.0869 13.8932 21.9556 14.1249 21.693 14.3078C21.4304 14.4907 21.1167 14.5943 20.7519 14.6187L20.3799 14.637H17.0533C17.0387 14.637 17.0095 14.64 16.9657 14.6461C16.9219 14.6522 16.8928 14.6553 16.8782 14.6553C16.5572 14.6553 16.2581 14.5394 15.9809 14.3078C15.8787 14.2102 15.193 13.4908 13.9236 12.1496C13.8507 12.0643 13.7485 11.985 13.6172 11.9119C13.5589 12.1069 13.4823 12.3874 13.3874 12.7532C13.2926 13.119 13.2233 13.3811 13.1795 13.5396L13.1139 13.8505C12.968 14.2773 12.6616 14.5333 12.1947 14.6187L11.8883 14.637H9.74349C8.53249 14.637 7.32514 14.1736 6.12144 13.247C4.91773 12.3203 3.8344 11.1224 2.87144 9.65311C1.90848 8.18386 1.01117 6.4738 0.179519 4.52293C0.106567 4.36442 0.0700912 4.18763 0.0700912 3.99254ZM13.2233 8.7295C12.9169 8.7295 12.6397 8.65939 12.3916 8.51917C12.1436 8.37895 12.0196 8.18691 12.0196 7.94305V3.73649C12.0196 3.49263 11.9466 3.31888 11.8007 3.21524C11.6548 3.1116 11.3995 3.05978 11.0347 3.05978L9.78726 3.09636C9.15988 3.09636 8.68569 3.18781 8.36471 3.3707C9.00668 3.62675 9.32767 4.04131 9.32767 4.61438V7.83331C9.29849 8.13814 9.15258 8.39114 8.88996 8.59233C8.62733 8.79351 8.33552 8.8941 8.01454 8.8941C7.57683 8.8941 7.24125 8.7173 7.0078 8.36371C5.86975 6.92494 5.02351 5.55933 4.46908 4.26688L4.27211 3.79136L1.36134 3.77307C1.17166 3.77307 1.06588 3.78221 1.044 3.8005C1.02211 3.81879 1.01117 3.87061 1.01117 3.95596C1.01117 4.0657 1.02576 4.18153 1.05494 4.30346L1.51454 5.32767C2.74013 7.97353 4.07149 10.0585 5.50864 11.5826C6.94579 13.1068 8.35741 13.8688 9.74349 13.8688H11.932C12.0196 13.8688 12.0852 13.8475 12.129 13.8048C12.1728 13.7621 12.2093 13.6798 12.2384 13.5579L12.2822 13.375L12.698 11.7655C12.8148 11.5461 12.9169 11.3997 13.0044 11.3266C13.1649 11.1925 13.3546 11.1254 13.5735 11.1254C13.9236 11.1254 14.2811 11.3022 14.6459 11.6558L16.5061 13.6311C16.6228 13.7896 16.7469 13.8688 16.8782 13.8688H20.4893C20.927 13.8688 21.1459 13.7774 21.1459 13.5945C21.1459 13.5335 21.124 13.4725 21.0802 13.4116L17.9068 10.1012C17.6588 9.84515 17.5347 9.57081 17.5347 9.27818C17.5347 8.98555 17.6515 8.70511 17.8849 8.43686C18.0746 8.19301 18.443 7.78759 18.9901 7.22062C19.5373 6.65365 20.0151 6.12326 20.4236 5.62944C20.8322 5.13563 21.1021 4.68754 21.2334 4.28517L21.299 4.04741C21.2845 4.02302 21.2772 3.9834 21.2772 3.92853C21.2772 3.87366 21.2699 3.82794 21.2553 3.79136H17.8193C17.6004 3.86451 17.4253 3.97425 17.294 4.12057L17.1627 4.46806C16.7979 5.30938 15.8423 6.60792 14.2957 8.36371C13.9893 8.60757 13.6318 8.7295 13.2233 8.7295Z" fill="#666666"/>
</svg>
